<svg width="73" height="72" viewBox="0 0 73 72" fill="none" xmlns="http://www.w3.org/2000/svg">
<g filter="url(#filter0_d_2_12228)">
<rect x="2" y="2" width="69" height="68" rx="34" fill="white"/>
<path d="M17.0288 35.8258C17.0278 39.1941 17.9278 42.483 19.6392 45.3818L16.8651 55.2864L27.2306 52.6287C30.0975 54.1548 33.3097 54.9545 36.574 54.9548H36.5826C47.3585 54.9548 56.1303 46.3802 56.1349 35.8409C56.137 30.7339 54.105 25.9316 50.413 22.3185C46.7218 18.7059 41.8125 16.7152 36.5818 16.7129C25.8046 16.7129 17.0334 25.287 17.0289 35.8258" fill="url(#paint0_linear_2_12228)"/>
<path d="M16.3307 35.82C16.3296 39.3095 17.2618 42.7159 19.0342 45.7186L16.1606 55.9782L26.8978 53.2252C29.8562 54.8025 33.1871 55.6342 36.5765 55.6354H36.5852C47.7477 55.6354 56.8347 46.7524 56.8394 35.8358C56.8413 30.5453 54.7362 25.5703 50.9124 21.8279C47.0881 18.0859 42.0033 16.0237 36.5852 16.0215C25.4208 16.0215 16.3351 24.9033 16.3307 35.82ZM22.725 45.2015L22.3241 44.5792C20.6388 41.9588 19.7493 38.9306 19.7505 35.8212C19.754 26.7475 27.3057 19.3654 36.5916 19.3654C41.0885 19.3672 45.3146 21.0814 48.4933 24.1916C51.6718 27.3021 53.4208 31.4369 53.4197 35.8346C53.4156 44.9083 45.8638 52.2914 36.5852 52.2914H36.5785C33.5573 52.2898 30.5943 51.4964 28.0102 49.9971L27.3953 49.6405L21.0237 51.2741L22.725 45.2015Z" fill="url(#paint1_linear_2_12228)"/>
<path d="M31.5229 27.5434C31.1438 26.7193 30.7448 26.7027 30.3842 26.6883C30.089 26.6758 29.7515 26.6768 29.4143 26.6768C29.0768 26.6768 28.5284 26.8009 28.0649 27.2958C27.6009 27.7912 26.2935 28.9883 26.2935 31.423C26.2935 33.8577 28.107 36.2109 28.3598 36.5414C28.6129 36.8713 31.8609 42.0275 37.0048 44.0112C41.2799 45.6596 42.1499 45.3318 43.0777 45.2491C44.0057 45.1668 46.0721 44.0524 46.4937 42.8968C46.9155 41.7413 46.9155 40.7509 46.7891 40.5439C46.6626 40.3377 46.3251 40.2139 45.819 39.9665C45.3129 39.7191 42.8246 38.5217 42.3608 38.3566C41.8968 38.1916 41.5594 38.1092 41.2219 38.6047C40.8844 39.0995 39.9153 40.2139 39.6199 40.5439C39.3248 40.8747 39.0294 40.9159 38.5235 40.6684C38.0171 40.4201 36.3872 39.8981 34.4535 38.2124C32.949 36.9006 31.9333 35.2807 31.6381 34.7852C31.3429 34.2905 31.6065 34.0223 31.8603 33.7757C32.0876 33.5539 32.3665 33.1978 32.6198 32.9089C32.8721 32.6199 32.9564 32.4137 33.1251 32.0837C33.294 31.7533 33.2095 31.4643 33.0832 31.2168C32.9564 30.9693 31.9729 28.5218 31.5229 27.5434Z" fill="white"/>
</g>
<defs>
<filter id="filter0_d_2_12228" x="0" y="0" width="73" height="72" filterUnits="userSpaceOnUse" color-interpolation-filters="sRGB">
<feFlood flood-opacity="0" result="BackgroundImageFix"/>
<feColorMatrix in="SourceAlpha" type="matrix" values="0 0 0 0 0 0 0 0 0 0 0 0 0 0 0 0 0 0 127 0" result="hardAlpha"/>
<feOffset/>
<feGaussianBlur stdDeviation="1"/>
<feComposite in2="hardAlpha" operator="out"/>
<feColorMatrix type="matrix" values="0 0 0 0 0 0 0 0 0 0 0 0 0 0 0 0 0 0 0.2 0"/>
<feBlend mode="normal" in2="BackgroundImageFix" result="effect1_dropShadow_2_12228"/>
<feBlend mode="normal" in="SourceGraphic" in2="effect1_dropShadow_2_12228" result="shape"/>
</filter>
<linearGradient id="paint0_linear_2_12228" x1="1980.36" y1="3874.06" x2="1980.36" y2="16.7129" gradientUnits="userSpaceOnUse">
<stop stop-color="#1FAF38"/>
<stop offset="1" stop-color="#60D669"/>
</linearGradient>
<linearGradient id="paint1_linear_2_12228" x1="2050.1" y1="4011.69" x2="2050.1" y2="16.0215" gradientUnits="userSpaceOnUse">
<stop stop-color="#F9F9F9"/>
<stop offset="1" stop-color="white"/>
</linearGradient>
</defs>
</svg>
